<?xml version="1.0" encoding="utf-8"?>
<!-- Generator: Adobe Illustrator 24.1.1, SVG Export Plug-In . SVG Version: 6.00 Build 0)  -->
<svg version="1.1" id="Layer_1" xmlns="http://www.w3.org/2000/svg" xmlns:xlink="http://www.w3.org/1999/xlink" x="0px" y="0px"
	 viewBox="0 0 512 512" style="enable-background:new 0 0 512 512;" xml:space="preserve">
<style type="text/css">
	.st0{fill:#333333;}
</style>
<g id="XMLID_8_">
	<path id="XMLID_15_" class="st0" d="M436.2,51H328.5c-10.5-30-38.9-51-72.1-51c-33.2,0-61.6,21.9-72.1,51H76.5
		c-28.4,0-51,23.5-51,51V461c0,28.4,23.5,51,51,51h358.9c28.4,0,51-23.5,51-51V102.1C487.3,74.5,463.8,51,436.2,51z M256.4,51
		c13.8,0,25.9,11.3,25.9,25.9s-11.3,25.9-25.9,25.9c-14.6,0-25.9-11.3-25.9-25.9S242.6,51,256.4,51z M307.4,409.9h-179v-51h179.8v51
		H307.4z M384.4,307.8h-256v-51h256.8v51H384.4z M384.4,205h-256v-51h256.8v51H384.4z"/>
</g>
</svg>
