<?xml version="1.0" encoding="UTF-8"?>
<svg width="752pt" height="752pt" version="1.1" viewBox="0 0 752 752" xmlns="http://www.w3.org/2000/svg">
 <defs>
  <clipPath id="b">
   <path d="m316 494h120v118.79h-120z"/>
  </clipPath>
  <clipPath id="a">
   <path d="m316 139.21h120v118.79h-120z"/>
  </clipPath>
 </defs>
 <g clip-path="url(#b)">
  <path d="m435.33 553.4c0 32.691-26.5 59.191-59.191 59.191-32.691 0-59.191-26.5-59.191-59.191 0-32.688 26.5-59.188 59.191-59.188 32.691 0 59.191 26.5 59.191 59.188"/>
 </g>
 <path d="m435.33 376.03c0 32.691-26.5 59.191-59.191 59.191-32.691 0-59.191-26.5-59.191-59.191 0-32.688 26.5-59.188 59.191-59.188 32.691 0 59.191 26.5 59.191 59.188"/>
 <g clip-path="url(#a)">
  <path d="m435.33 198.66c0 32.691-26.5 59.191-59.191 59.191-32.691 0-59.191-26.5-59.191-59.191 0-32.688 26.5-59.191 59.191-59.191 32.691 0 59.191 26.504 59.191 59.191"/>
 </g>
</svg>
